<svg id="Capa_1" enable-background="new 0 0 512 512" height="512" viewBox="0 0 512 512" width="512" xmlns="http://www.w3.org/2000/svg"><g><circle cx="146" cy="176" r="25"/><circle cx="306" cy="136" r="35"/><circle cx="176" cy="376" r="15"/><path d="m256 0c-141.159 0-256 114.841-256 256s114.841 256 256 256 256-114.841 256-256-114.841-256-256-256zm135 206c8.284 0 15 6.716 15 15s-6.716 15-15 15-15-6.716-15-15 6.716-15 15-15zm-85-135c35.841 0 65 29.159 65 65s-29.159 65-65 65-65-29.159-65-65 29.159-65 65-65zm-160 50c30.327 0 55 24.673 55 55s-24.673 55-55 55-55-24.673-55-55 24.673-55 55-55zm-50 190c-8.284 0-15-6.716-15-15s6.716-15 15-15 15 6.716 15 15-6.716 15-15 15zm80 110c-24.813 0-45-20.187-45-45s20.187-45 45-45 45 20.187 45 45-20.187 45-45 45zm80-120c-8.284 0-15-6.716-15-15s6.716-15 15-15 15 6.716 15 15-6.716 15-15 15zm100 90c-30.327 0-55-24.673-55-55s24.673-55 55-55 55 24.673 55 55-24.673 55-55 55z"/><circle cx="356" cy="336" r="25"/></g></svg>