<svg id="Capa_1" enable-background="new 0 0 512 512" height="512" viewBox="0 0 512 512" width="512" xmlns="http://www.w3.org/2000/svg"><g><path d="m256 70c8.285 0 15-6.716 15-15v-40c0-8.284-6.716-15-15-15-8.284 0-15 6.716-15 15v40c0 8.284 6.716 15 15 15z"/><path d="m358.53 103.683 28.284-28.284c5.858-5.858 5.858-15.355 0-21.213s-15.355-5.858-21.213 0l-28.284 28.284c-5.858 5.858-5.858 15.355 0 21.213s15.355 5.858 21.213 0z"/><path d="m86 200h40c8.284 0 15-6.716 15-15 0-8.284-6.716-15-15-15h-40c-8.284 0-15 6.716-15 15 0 8.284 6.716 15 15 15z"/><path d="m371 185c0 8.285 6.716 15 15 15h40c8.284 0 15-6.716 15-15 0-8.284-6.716-15-15-15h-40c-8.284 0-15 6.716-15 15z"/><path d="m153.47 103.683c5.858 5.858 15.355 5.858 21.213 0 5.858-5.858 5.858-15.355 0-21.213l-28.285-28.284c-5.858-5.858-15.355-5.858-21.213 0-5.858 5.858-5.858 15.355 0 21.213z"/><path d="m256 317c-99.412 0-180 80.589-180 180v15h45v-15c0-74.559 60.442-135 135-135 74.558 0 135 60.441 135 135v15h45v-15c0-99.411-80.589-180-180-180z"/><path d="m256 392c-57.99 0-105 47.01-105 105v15h30c8.284 0 15-6.716 15-15 0-33.137 26.863-60 60-60 33.137 0 60 26.863 60 60 0 8.284 6.716 15 15 15h30.001v-15c-.001-57.99-47.011-105-105.001-105z"/><path d="m169.725 225.247c27.544-8.71 56.558-13.247 86.275-13.247 29.716 0 58.732 4.538 86.275 13.247 5.596-12.099 8.725-25.562 8.725-39.744 0-52.384-42.617-95.001-95-95.001s-95 42.617-95 95c0 14.183 3.129 27.646 8.725 39.745z"/><path d="m256 242c-140.833 0-255 114.167-255 255 0 8.284 6.716 15 15 15h30v-15c0-115.98 94.02-210 210-210 115.98 0 210 94.02 210 210v15h30c8.284 0 15-6.716 15-15 0-140.833-114.167-255-255-255z"/></g></svg>