<svg id="Capa_1" enable-background="new 0 0 512 512" height="512" viewBox="0 0 512 512" width="512" xmlns="http://www.w3.org/2000/svg"><g><path d="m285.845 35 13.999-35h-87.688l13.999 35z"/><path d="m271 432v15c0 8.284-6.716 15-15 15s-15-6.716-15-15v-15h-150v25c0 30.327 24.673 55 55 55h220c30.327 0 55-24.673 55-55v-25z"/><g><circle cx="256" cy="242" r="20"/><path d="m366 0h-33.844l-22.229 55.571c-2.278 5.695-7.793 9.429-13.927 9.429h-80c-6.134 0-11.649-3.734-13.927-9.429l-22.229-55.571h-33.844c-30.327 0-55 24.673-55 55v347h330v-347c0-30.327-24.673-55-55-55zm-60.502 171.289 14.142-14.142c5.858-5.858 15.355-5.858 21.213 0s5.858 15.355 0 21.213l-14.142 14.142c-5.858 5.858-15.355 5.858-21.213 0s-5.858-15.355 0-21.213zm-64.498-34.289c0-8.284 6.716-15 15-15 8.284 0 15 6.716 15 15v20c0 8.284-6.716 15-15 15-8.284 0-15-6.716-15-15zm-69.853 20.147c5.858-5.858 15.355-5.858 21.213 0l14.142 14.142c5.858 5.858 5.858 15.355 0 21.213s-15.355 5.858-21.213 0l-14.142-14.142c-5.857-5.857-5.857-15.355 0-21.213zm-35.147 84.853c0-8.285 6.716-15 15-15h20c8.284 0 15 6.716 15 15 0 8.284-6.716 15-15 15h-20c-8.284 0-15-6.716-15-15zm70.502 70.711-14.142 14.142c-5.858 5.858-15.355 5.858-21.213 0s-5.858-15.355 0-21.213l14.142-14.142c5.858-5.858 15.355-5.858 21.213 0s5.858 15.355 0 21.213zm64.498 34.289c0 8.284-6.716 15-15 15-8.284 0-15-6.716-15-15v-20c0-8.284 6.716-15 15-15 8.284 0 15 6.716 15 15zm-15-55c-27.57 0-50-22.43-50-50s22.43-50 50-50 50 22.43 50 50-22.43 50-50 50zm84.853 34.853c-5.858 5.858-15.355 5.858-21.213 0l-14.142-14.142c-5.858-5.858-5.858-15.355 0-21.213s15.355-5.858 21.213 0l14.142 14.142c5.857 5.857 5.857 15.355 0 21.213zm35.147-84.853c0 8.284-6.716 15-15 15h-20c-8.284 0-15-6.716-15-15 0-8.284 6.716-15 15-15h20c8.284 0 15 6.716 15 15z"/></g></g></svg>