<svg id="Capa_1" enable-background="new 0 0 512 512" height="512" viewBox="0 0 512 512" width="512" xmlns="http://www.w3.org/2000/svg"><g><g><g><path d="m366.819 200.35c14.885 4.771 28.657 12.628 40.447 23.139 21.045-15.487 34.734-40.415 34.734-68.489 0-46.869-38.131-85-85-85-23.534 0-45.486 9.703-61.227 26.047 36.009 23.323 62.277 60.532 71.046 104.303z"/></g><g><g><g><g><path d="m497 170h-20c-8.284 0-15-6.716-15-15 0-8.284 6.716-15 15-15h20c8.284 0 15 6.716 15 15 0 8.284-6.716 15-15 15z"/><path d="m431.246 80.754c-5.858-5.858-5.858-15.356 0-21.213l14.142-14.142c5.858-5.858 15.355-5.858 21.213 0 5.858 5.858 5.858 15.355 0 21.213l-14.141 14.142c-5.858 5.858-15.356 5.858-21.214 0z"/><path d="m357 50c-8.284 0-15-6.716-15-15v-20c0-8.284 6.716-15 15-15 8.284 0 15 6.716 15 15v20c0 8.284-6.716 15-15 15z"/><path d="m261.54 80.754-14.142-14.142c-5.858-5.858-5.858-15.355 0-21.213 5.858-5.858 15.355-5.858 21.213 0l14.142 14.142c5.858 5.858 5.858 15.355 0 21.213-5.857 5.858-15.355 5.858-21.213 0z"/><path d="m445.389 264.602-14.142-14.142c-5.858-5.858-5.858-15.355 0-21.213 5.858-5.858 15.355-5.858 21.213 0l14.142 14.142c5.858 5.858 5.858 15.355 0 21.213-5.858 5.858-15.356 5.858-21.213 0z"/></g></g></g></g></g><g><g><g><path d="m339.808 225.321c-3.741-69.737-61.656-125.321-132.308-125.321-70.653 0-128.567 55.584-132.308 125.321-42.08 3.711-75.192 39.151-75.192 82.179 0 36.394 23.698 67.338 56.466 78.267 14.792-40.092 53.37-68.767 98.534-68.767 46.738 0 86.424 30.708 99.993 73h77.507c45.49 0 82.5-37.009 82.5-82.5 0-43.028-33.112-78.468-75.192-82.179z"/></g><path d="m230 422c0-41.422-33.578-75-75-75s-75 33.578-75 75c-24.853 0-45 20.147-45 45 0 24.853 20.147 45 45 45h150c24.853 0 45-20.147 45-45 0-24.853-20.147-45-45-45z"/></g></g></g></svg>