<svg id="Capa_1" enable-background="new 0 0 512 512" height="512" viewBox="0 0 512 512" width="512" xmlns="http://www.w3.org/2000/svg"><g><path d="m285.845 35 13.999-35h-87.688l13.999 35z"/><path d="m271 432v15c0 8.284-6.716 15-15 15s-15-6.716-15-15v-15h-150v25c0 30.327 24.673 55 55 55h220c30.327 0 55-24.673 55-55v-25z"/><g><path d="m366 0h-33.844l-22.229 55.571c-2.278 5.695-7.793 9.429-13.927 9.429h-80c-6.134 0-11.649-3.734-13.927-9.429l-22.229-55.571h-33.844c-30.327 0-55 24.673-55 55v347h330v-347c0-30.327-24.673-55-55-55zm-47.5 289.5h-12.965l-4.907 10.468 17.431 9.297c7.044 3.757 9.912 12.374 6.523 19.603l-15 32c-3.516 7.501-12.447 10.731-19.948 7.215-7.501-3.516-10.732-12.447-7.216-19.948l8.954-19.102-17.431-9.297c-7.044-3.757-9.912-12.374-6.523-19.603l4.984-10.633h-46.868l-4.907 10.468 17.431 9.297c7.044 3.757 9.912 12.374 6.523 19.603l-15 32c-3.516 7.501-12.447 10.731-19.948 7.215-7.501-3.516-10.732-12.447-7.216-19.948l8.954-19.102-17.431-9.297c-7.044-3.757-9.912-12.374-6.523-19.603l4.997-10.66c-28.447-.582-51.414-23.889-51.414-52.473 0-24.143 16.383-44.532 38.614-50.637 6.256-36.5 38.128-64.363 76.386-64.363s70.13 27.863 76.386 64.363c22.231 6.105 38.614 26.494 38.614 50.637 0 28.948-23.551 52.5-52.5 52.5z"/><path d="m318.5 214.5c-8.284 0-15-6.716-15-15 0-26.191-21.309-47.5-47.5-47.5s-47.5 21.309-47.5 47.5c0 8.284-6.716 15-15 15-12.407 0-22.5 10.094-22.5 22.5s10.093 22.5 22.5 22.5h125c12.407 0 22.5-10.094 22.5-22.5s-10.093-22.5-22.5-22.5z"/></g></g></svg>