<svg id="Capa_1" enable-background="new 0 0 512 512" height="512" viewBox="0 0 512 512" width="512" xmlns="http://www.w3.org/2000/svg"><g><path d="m301.572 450.462c-7.666-3.142-16.427.526-19.568 8.191l-13.383 32.655c-3.142 7.666.526 16.426 8.191 19.568h.001c7.665 3.141 16.426-.526 19.567-8.191l13.383-32.655c3.142-7.666-.526-16.427-8.191-19.568z"/><path d="m51.572 450.462c-7.666-3.142-16.427.526-19.568 8.191l-13.384 32.655c-3.142 7.666.526 16.426 8.191 19.568h.001c7.665 3.141 16.426-.526 19.567-8.191l13.383-32.655c3.143-7.666-.525-16.427-8.19-19.568z"/><path d="m134.906 450.462c-7.665-3.142-16.426.525-19.568 8.191l-13.384 32.655c-3.142 7.665.525 16.426 8.191 19.568 7.665 3.142 16.426-.525 19.568-8.191l13.384-32.655c3.142-7.665-.526-16.426-8.191-19.568z"/><path d="m218.239 450.462c-7.666-3.142-16.427.526-19.568 8.191l-13.383 32.655c-3.142 7.666.526 16.426 8.191 19.568h.001c7.665 3.141 16.426-.526 19.567-8.191l13.383-32.655c3.142-7.666-.526-16.427-8.191-19.568z"/><path d="m509.38 99.504c-1.416-6.828-7.352-11.78-14.323-11.948-6.971-.169-13.14 4.488-14.886 11.239-6.277 24.26-28.141 41.205-53.171 41.205-14.691 0-28.502-5.72-38.891-16.109-10.389-10.388-16.109-24.2-16.109-38.891 0-25.03 16.944-46.895 41.205-53.171 6.751-1.746 11.409-7.915 11.239-14.886-.169-6.973-5.122-12.908-11.948-14.323-8.38-1.739-16.958-2.62-25.496-2.62-53.922 0-99.977 34.321-117.472 82.264 49.276 20.357 86.51 64.266 97.292 118.087 18.39 5.894 35.082 16.495 48.434 30.995 3.679 3.995 7.038 8.221 10.069 12.638 50.234-16.219 86.677-63.422 86.677-118.984 0-8.538-.881-17.116-2.62-25.496z"/><path d="m339.808 225.321c-3.741-69.737-61.656-125.321-132.308-125.321-70.653 0-128.567 55.584-132.308 125.321-42.08 3.711-75.192 39.151-75.192 82.179 0 38.155 26.041 70.331 61.279 79.72l-6.042 14.742c-3.142 7.666.526 16.426 8.191 19.568h.001c7.665 3.141 16.426-.526 19.567-8.191l9.566-23.339h50.911l-4.902 11.962c-3.142 7.666.526 16.426 8.191 19.568h.001c7.665 3.141 16.426-.526 19.567-8.191l9.565-23.339h50.911l-4.903 11.962c-3.142 7.665.525 16.426 8.191 19.568 7.665 3.142 16.426-.525 19.568-8.191l9.567-23.339h50.911l-4.902 11.962c-3.142 7.666.526 16.426 8.191 19.568h.001c7.665 3.141 16.426-.526 19.567-8.191l9.84-24.01c40.626-5.104 72.163-39.841 72.163-81.829 0-43.028-33.112-78.468-75.192-82.179z"/></g></svg>