<svg id="Capa_1" enable-background="new 0 0 512 512" height="512" viewBox="0 0 512 512" width="512" xmlns="http://www.w3.org/2000/svg"><g><path d="m497 482h-142.714c.844-8.448 2.404-16.762 4.641-24.879 21.621 4.226 43.953 1.543 64.302-7.946 25.419-11.853 44.7-32.895 54.292-59.25 8.262-22.699 5.019-59.525-9.915-112.578-10.541-37.444-23.006-68.576-23.531-69.884-1.589-3.952-4.784-7.042-8.787-8.5-4.003-1.457-8.437-1.143-12.195.863-.739.395-11.482 6.15-26.825 15.354 10.955 51.702 11.551 89.988 1.855 116.627-14.39 39.533-43.312 71.096-81.438 88.875-4.57 2.131-9.204 4.021-13.888 5.695 7.865 8.293 17.175 15.381 27.719 20.842-3.247 11.304-5.381 22.941-6.358 34.781h-117.106c.517-27.298 4.06-54.398 10.489-80.786-3.703-.986-7.382-2.139-11.027-3.465-5.971-2.173-11.677-4.754-17.108-7.691-7.636 29.979-11.817 60.844-12.362 91.942h-162.044c-8.284 0-15 6.716-15 15s6.716 15 15 15h482c8.284 0 15-6.716 15-15s-6.716-15-15-15z"/><path d="m125 90h80c24.813 0 45-20.187 45-45s-20.187-45-45-45c-8.284 0-15 6.716-15 15s6.716 15 15 15c8.271 0 15 6.729 15 15s-6.729 15-15 15h-80c-8.284 0-15 6.716-15 15s6.716 15 15 15z"/><path d="m250.755 283.728c7.183 4.128 9.659 13.297 5.531 20.479-17.484 30.422-30.49 63.127-38.746 97.007 10.756 2.863 21.717 4.292 32.657 4.292 18.365 0 36.667-4.021 53.808-12.014 30.865-14.393 54.278-39.944 65.927-71.946 20.354-55.925-26.453-187.277-41.285-226.203-1.552-4.072-4.789-7.263-8.882-8.752-4.093-1.491-8.623-1.126-12.429.995-34.384 19.172-143.702 83.225-172.785 137.414h140.449c8.271 0 15-6.729 15-15s-6.729-15-15-15c-8.284 0-15-6.716-15-15s6.716-15 15-15c24.813 0 45 20.187 45 45s-20.187 45-45 45h-150.304c-9.9 53.979 16.269 108.866 64.709 135.058 8.96-35.176 22.67-69.132 40.87-100.8 4.129-7.182 13.297-9.659 20.48-5.53z"/><path d="m134.551 225h-88.551c-8.284 0-15 6.716-15 15s6.716 15 15 15h78.696c1.27-6.925 3.127-13.836 5.614-20.669 1.118-3.069 2.552-6.185 4.241-9.331z"/><path d="m15 90h50c8.284 0 15-6.716 15-15s-6.716-15-15-15h-50c-8.284 0-15 6.716-15 15s6.716 15 15 15z"/><path d="m416 90h50c24.813 0 45-20.187 45-45s-20.187-45-45-45c-8.284 0-15 6.716-15 15s6.716 15 15 15c8.271 0 15 6.729 15 15s-6.729 15-15 15h-50c-8.284 0-15 6.716-15 15s6.716 15 15 15z"/><path d="m15 405h50c24.813 0 45-20.187 45-45s-20.187-45-45-45c-8.284 0-15 6.716-15 15s6.716 15 15 15c8.271 0 15 6.729 15 15s-6.729 15-15 15h-50c-8.284 0-15 6.716-15 15s6.716 15 15 15z"/></g></svg>