<svg id="Capa_1" enable-background="new 0 0 512 512" height="512" viewBox="0 0 512 512" width="512" xmlns="http://www.w3.org/2000/svg"><g><path d="m476.142 35.858c7.81 7.81 7.811 20.474 0 28.284l-6.065 6.065c6.608 7.599 12.811 15.558 18.597 23.829l8.681-8.682c19.526-19.526 19.526-51.184 0-70.71-19.526-19.526-51.185-19.527-70.711 0l-8.681 8.681c8.271 5.786 16.23 11.989 23.829 18.597l6.065-6.065c7.811-7.81 20.475-7.81 28.285.001z"/><g><path d="m255 92c-90.981 0-165 74.019-165 165s74.019 165 165 165 165-74.019 165-165-74.018-165-165-165zm84.557 100.059-70.711 169.706c-2.339 5.615-7.82 9.231-13.841 9.231-.321 0-.644-.01-.969-.031-6.395-.412-11.821-4.84-13.508-11.022l-18.957-69.512-69.513-18.958c-6.183-1.686-10.611-7.113-11.022-13.508-.412-6.395 3.284-12.345 9.199-14.81l169.706-70.71c5.61-2.338 12.078-1.058 16.376 3.24s5.578 10.763 3.24 16.374z"/><path d="m237.734 263.742c5.124 1.397 9.127 5.401 10.524 10.525l9.71 35.604 39.885-95.724-95.725 39.885z"/><g><path d="m450 257c0 48.374-17.712 92.685-46.984 126.803l42.496 42.496c40.09-45.064 64.488-104.381 64.488-169.299s-24.398-124.235-64.488-169.299l-42.496 42.496c29.272 34.118 46.984 78.429 46.984 126.803z"/><path d="m255 62c48.374 0 92.685 17.713 126.803 46.984l42.496-42.496c-45.064-40.09-104.381-64.488-169.299-64.488s-124.235 24.398-169.299 64.488l42.496 42.496c34.119-29.271 78.429-46.984 126.803-46.984z"/><path d="m60 257c0-48.374 17.713-92.685 46.984-126.803l-42.496-42.496c-40.09 45.064-64.488 104.381-64.488 169.299s24.398 124.235 64.488 169.299l42.496-42.496c-29.271-34.118-46.984-78.429-46.984-126.803z"/><path d="m255 452c-48.374 0-92.685-17.713-126.803-46.984l-42.496 42.496c45.064 40.09 104.381 64.488 169.299 64.488s124.235-24.398 169.299-64.488l-42.496-42.496c-34.118 29.271-78.429 46.984-126.803 46.984z"/></g></g></g></svg>