<svg id="Capa_1" enable-background="new 0 0 512 512" height="512" viewBox="0 0 512 512" width="512" xmlns="http://www.w3.org/2000/svg"><g><g><path d="m256 90c-46.256 0-89.872-3.202-122.815-9.015-16.697-2.947-30.021-6.468-39.601-10.465-14.985-6.251-22.584-14.838-22.584-25.52s7.599-19.269 22.584-25.521c9.579-3.997 22.903-7.518 39.601-10.465 32.943-5.812 76.559-9.014 122.815-9.014s89.872 3.202 122.815 9.015c16.697 2.947 30.021 6.468 39.601 10.465 14.985 6.251 22.584 14.838 22.584 25.52s-7.599 19.269-22.584 25.521c-9.579 3.997-22.903 7.518-39.601 10.465-32.943 5.812-76.559 9.014-122.815 9.014z"/><path d="m497 512h-482c-8.284 0-15-6.716-15-15s6.716-15 15-15h482c8.284 0 15 6.716 15 15s-6.716 15-15 15z"/></g><g><g><path d="m340.964 412h-64.964c-8.284 0-15-6.716-15-15s6.716-15 15-15h77.496c12.324-39.201 11.017-82.292-5.366-122.08-1.075-2.61-1.974-5.255-2.738-7.92h-79.392c-8.284 0-15-6.716-15-15s6.716-15 15-15h77.054c2.392-19.305 12.167-37.451 27.97-50h-65.024c-8.284 0-15-6.716-15-15s6.716-15 15-15h99.81c11.381-13.239 20.271-28.382 26.262-44.712-.696.308-1.384.62-2.104.92-11.773 4.912-26.8 8.942-45.937 12.32-34.618 6.109-80.086 9.472-128.031 9.472s-93.413-3.363-128.028-9.471c-19.139-3.379-34.165-7.409-45.94-12.322-4.065-1.696-7.717-3.526-11.031-5.448v29.256c0 6.708.425 13.38 1.238 19.984h133.761c8.284 0 15 6.716 15 15s-6.716 15-15 15h-127.196c8.49 26.626 23.665 51.001 44.347 70.389 12.903 12.097 24.311 25.395 34.157 39.611h68.692c8.284 0 15 6.716 15 15s-6.716 15-15 15h-50.902c21.511 42.916 30.295 91.593 24.598 140h112.402c11.594-12.159 21.26-25.627 28.866-39.999z"/></g><path d="m476 142h-70.19c-8.555 9.951-18.513 18.83-29.732 26.31-1.749 1.166-3.43 2.401-5.053 3.69h104.975c8.284 0 15-6.716 15-15s-6.716-15-15-15z"/><path d="m345.392 252h20.608c8.284 0 15-6.716 15-15s-6.716-15-15-15h-22.946c-1.227 9.898-.501 20.095 2.338 30z"/><path d="m376 412c8.284 0 15-6.716 15-15s-6.716-15-15-15h-22.504c-3.242 10.313-7.429 20.356-12.532 30z"/><path d="m46 142c-8.284 0-15 6.716-15 15s6.716 15 15 15h32.804c-3.106-9.743-5.308-19.788-6.565-30z"/><path d="m96 282c-8.284 0-15 6.716-15 15s6.716 15 15 15h79.098c-5.196-10.365-11.136-20.392-17.791-30z"/></g></g></svg>