<svg id="Capa_1" enable-background="new 0 0 512 512" height="512" viewBox="0 0 512 512" width="512" xmlns="http://www.w3.org/2000/svg"><g><path d="m507.606 451.394-35-35c-5.858-5.858-15.355-5.858-21.213 0s-5.858 15.355 0 21.213l9.394 9.394h-108.787v-27h24.772c74.132 0 134.524-59.961 135.222-133.931.466-49.349-26.483-94.907-69.33-119.395l-.664-.38v-106.295h-75c-30.376 0-55 24.624-55 55v55h23.51c23.275 0 45.458 7.33 64.149 21.199 18.691 13.865 32.14 32.969 38.89 55.243 11.929 39.362.749 81.343-29.176 109.56-20.109 18.961-46.269 29.403-73.658 29.404-12.748 0-25.339-2.258-37.426-6.711l-71.846-26.47c-7.773-2.864-11.754-11.487-8.89-19.261 2.862-7.774 11.486-11.755 19.261-8.89l71.846 26.47c8.755 3.226 17.857 4.861 27.054 4.861 19.708-.001 38.559-7.541 53.078-21.231 21.586-20.354 29.65-50.638 21.046-79.031-4.869-16.068-14.57-29.849-28.053-39.852-13.484-10.003-29.485-15.291-46.275-15.291h-178.51c-8.284 0-15 6.716-15 15v30c0 96.65 78.35 175 175 175h5v27h-108.787l-30.606-30.606c-5.858-5.858-15.355-5.858-21.213 0s-5.858 15.355 0 21.213l24.393 24.393-24.394 24.394c-5.858 5.858-5.858 15.355 0 21.213s15.355 5.858 21.213 0l30.607-30.607h108.787v20c0 8.284 6.716 15 15 15s15-6.716 15-15v-20h108.787l-9.394 9.394c-5.858 5.858-5.858 15.355 0 21.213s15.355 5.858 21.213 0l35-35c5.859-5.858 5.859-15.356 0-21.213z"/><path d="m367 30h72.42c-6.192-17.459-22.865-30-42.42-30h-120c-8.284 0-15 6.716-15 15v50c0 18.425 7.719 35.072 20.078 46.911 1.628-45.51 39.014-81.911 84.922-81.911z"/><path d="m512 115c0-5.451-2.825-10.319-7.558-13.023l-32.442-18.539v63.124l32.442-18.539c4.733-2.704 7.558-7.572 7.558-13.023z"/><path d="m185.391 145.761c-12.36-38.12-48.206-65.761-90.391-65.761-52.383 0-95 42.617-95 95v160c0 8.284 6.716 15 15 15 6.795 0 13.472-.513 20-1.487v-148.513c0-46.869 38.131-85 85-85 26.268 0 49.787 11.981 65.391 30.761z"/><path d="m157 170h9.054c-10.083-15.385-27.452-25-46.054-25-30.327 0-55 24.673-55 55v140.392c21.442-8.584 40.184-22.518 54.577-40.138-4.929-17.586-7.577-36.115-7.577-55.254v-30c0-24.813 20.187-45 45-45z"/></g></svg>