<svg id="Capa_1" enable-background="new 0 0 512 512" height="512" viewBox="0 0 512 512" width="512" xmlns="http://www.w3.org/2000/svg"><g><path d="m357 70c-23.534 0-45.486 9.703-61.227 26.047 36.008 23.323 62.277 60.532 71.046 104.303 14.885 4.771 28.657 12.628 40.447 23.139 21.045-15.487 34.734-40.415 34.734-68.489 0-46.869-38.131-85-85-85z"/><path d="m339.808 225.321c-3.741-69.737-61.656-125.321-132.308-125.321-70.653 0-128.567 55.584-132.308 125.321-42.08 3.711-75.192 39.151-75.192 82.179 0 38.155 26.041 70.331 61.279 79.72l-12.659 30.888c-2.794 6.818-.222 14.656 6.068 18.494l29.082 17.74-15.15 36.966c-3.142 7.666.526 16.426 8.191 19.568s16.426-.526 19.568-8.191l20-48.8c2.794-6.818.222-14.656-6.068-18.494l-29.081-17.741 11.332-27.65h50.912l-11.52 28.108c-2.794 6.818-.222 14.656 6.068 18.494l29.082 17.74-15.15 36.966c-3.142 7.666.526 16.426 8.191 19.568s16.426-.526 19.568-8.191l20-48.8c2.794-6.818.222-14.656-6.068-18.494l-29.082-17.74 11.332-27.651h50.911l-11.519 28.107c-2.794 6.819-.223 14.657 6.068 18.494l29.082 17.74-15.15 36.966c-3.142 7.666.526 16.426 8.191 19.568s16.426-.526 19.568-8.191l20-48.8c2.794-6.818.222-14.657-6.068-18.494l-29.082-17.74 11.332-27.65h50.912l-11.519 28.107c-2.794 6.819-.223 14.657 6.068 18.494l29.082 17.74-15.15 36.966c-3.142 7.666.526 16.426 8.191 19.568s16.426-.526 19.568-8.191l20-48.8c2.794-6.818.223-14.657-6.068-18.494l-29.082-17.74 11.607-28.321c40.625-5.104 72.163-39.841 72.163-81.829 0-43.028-33.112-78.468-75.192-82.179z"/><path d="m497 140h-20c-8.284 0-15 6.716-15 15s6.716 15 15 15h20c8.284 0 15-6.716 15-15s-6.716-15-15-15z"/><path d="m431.246 80.754c5.858 5.858 15.355 5.858 21.213 0l14.142-14.142c5.858-5.858 5.858-15.355 0-21.213-5.858-5.858-15.355-5.858-21.213 0l-14.142 14.141c-5.858 5.858-5.858 15.356 0 21.214z"/><path d="m357 50c8.284 0 15-6.716 15-15v-20c0-8.284-6.716-15-15-15s-15 6.716-15 15v20c0 8.284 6.716 15 15 15z"/><path d="m261.54 80.754c5.858 5.858 15.355 5.858 21.213 0 5.858-5.858 5.858-15.355 0-21.213l-14.142-14.142c-5.858-5.858-15.355-5.858-21.213 0-5.858 5.858-5.858 15.355 0 21.213z"/><path d="m452.46 229.246c-5.858-5.858-15.355-5.858-21.213 0-5.858 5.858-5.858 15.355 0 21.213l14.142 14.142c5.858 5.858 15.355 5.858 21.213 0 5.858-5.858 5.858-15.355 0-21.213z"/></g></svg>