<svg id="Capa_1" enable-background="new 0 0 512 512" height="512" viewBox="0 0 512 512" width="512" xmlns="http://www.w3.org/2000/svg"><g><path d="m215.029 156.599c10.868-3.867 21.018-11.026 29.42-21.168 5.999-7.241 17.104-7.241 23.103 0 13.125 15.843 30.331 24.569 48.448 24.569s35.323-8.726 48.449-24.569c5.999-7.241 17.104-7.241 23.103 0 13.125 15.843 30.331 24.569 48.448 24.569s35.323-8.726 48.449-24.569c5.999-7.241 17.104-7.241 23.103 0 1.117 1.349 2.274 2.626 3.449 3.871v-64.302c0-14.051-17.587-20.39-26.551-9.569-13.127 15.843-30.333 24.569-48.45 24.569s-35.323-8.726-48.449-24.569c-5.999-7.241-17.104-7.241-23.102 0-13.126 15.843-30.332 24.569-48.449 24.569s-35.323-8.726-48.449-24.569c-5.999-7.241-17.104-7.241-23.102 0-11.891 14.355-26.872 22.575-42.358 24.252 5.69 15.098 9.434 30.997 11.029 47.353z"/><path d="m496 512h-480c-8.284 0-15-6.716-15-15v-482c0-8.284 6.716-15 15-15h12.994c38.583 0 75.569 14.276 104.145 40.2s46.377 61.349 50.124 99.749l18.262 187.188v.001c6.276 64.341 59.76 112.862 124.408 112.862h185.067v57c0 8.284-6.716 15-15 15z"/><path d="m496 166.547c-17.172 15.226-37.998 23.453-60 23.453s-42.828-8.227-60-23.453c-17.172 15.226-37.998 23.453-60 23.453-22.005 0-42.831-8.227-60.005-23.458-11.397 10.096-24.351 17.048-37.982 20.645l13.369 137.037c4.771 48.9 45.418 85.776 94.551 85.776h185.067v-232.498c-5.24-3.109-10.263-6.755-15-10.955zm-59.393 129.059c-5.858 5.858-15.355 5.858-21.213 0l-24.394-24.393v83.787c0 8.284-6.716 15-15 15-8.284 0-15-6.716-15-15v-83.787l-24.394 24.394c-5.858 5.858-15.355 5.858-21.213 0-5.858-5.858-5.858-15.355 0-21.213l50-50c5.858-5.858 15.355-5.858 21.213 0l50 50c5.859 5.857 5.859 15.355.001 21.212z"/></g></svg>