<svg id="Capa_1" enable-background="new 0 0 513 513" height="512" viewBox="0 0 513 513" width="512" xmlns="http://www.w3.org/2000/svg"><g><g><g><g><circle cx="240.562" cy="403.427" r="14.942"/><circle cx="101.106" cy="313.777" r="14.942"/><circle cx="220.64" cy="263.971" r="24.903"/><path d="m180.795 154.398c-98.867 0-179.301 80.434-179.301 179.301s80.434 179.301 179.301 179.301 179.301-80.434 179.301-179.301-80.434-179.301-179.301-179.301zm-64.747 278.913c-8.252 0-14.942-6.69-14.942-14.942s6.69-14.942 14.942-14.942 14.942 6.69 14.942 14.942c-.001 8.252-6.69 14.942-14.942 14.942zm-14.942-74.709c-24.717 0-44.825-20.108-44.825-44.825s20.109-44.825 44.825-44.825 44.825 20.108 44.825 44.825-20.109 44.825-44.825 44.825zm64.747-94.631c0-30.209 24.577-54.786 54.786-54.786s54.786 24.577 54.786 54.786-24.577 54.786-54.786 54.786-54.786-24.577-54.786-54.786zm74.709 184.281c-24.717 0-44.825-20.108-44.825-44.825s20.109-44.825 44.825-44.825 44.825 20.108 44.825 44.825-20.108 44.825-44.825 44.825zm74.709-94.631c-8.252 0-14.942-6.69-14.942-14.942s6.69-14.942 14.942-14.942 14.942 6.69 14.942 14.942c0 8.253-6.69 14.942-14.942 14.942z"/></g></g><path d="m421.855 184.782c0-52.179-42.451-94.631-94.631-94.631-33.017 0-63.374 17.105-80.563 44.998 61.334 20.399 110.135 68.474 131.538 129.347 27.106-17.327 43.656-47.204 43.656-79.714z"/></g><path d="m327.224 69.728c-8.252 0-14.942-6.69-14.942-14.942v-39.844c.001-8.252 6.69-14.942 14.942-14.942 8.252 0 14.942 6.69 14.942 14.942v39.845c0 8.252-6.69 14.941-14.942 14.941z"/><path d="m225.092 103.28-28.174-28.174c-5.835-5.835-5.835-15.296 0-21.131 5.835-5.835 15.296-5.835 21.131 0l28.174 28.174c5.835 5.835 5.835 15.296 0 21.131-5.835 5.835-15.296 5.835-21.131 0z"/><path d="m436.4 314.588-28.174-28.174c-5.835-5.835-5.835-15.296 0-21.131 5.835-5.835 15.296-5.835 21.131 0l28.174 28.174c5.835 5.835 5.835 15.296 0 21.131-5.835 5.835-15.296 5.835-21.131 0z"/><path d="m511.506 184.282c0 8.252-6.69 14.942-14.942 14.942h-39.845c-8.252 0-14.942-6.69-14.942-14.942 0-8.252 6.69-14.942 14.942-14.942h39.845c8.252 0 14.942 6.689 14.942 14.942"/><path d="m408.226 103.28c-5.835-5.835-5.835-15.296 0-21.131l28.174-28.174c5.835-5.835 15.295-5.835 21.131 0 5.835 5.835 5.835 15.296 0 21.131l-28.174 28.174c-5.836 5.835-15.296 5.835-21.131 0z"/></g></svg>