<svg id="Capa_1" enable-background="new 0 0 512 512" height="512" viewBox="0 0 512 512" width="512" xmlns="http://www.w3.org/2000/svg"><g><path d="m152 160c23.668 0 43.112-18.369 44.858-41.598l54.513-34.071c7.245 15.166 22.732 25.669 40.629 25.669 15.929 0 29.94-8.326 37.94-20.847l57.092 57.092c.663 24.239 20.572 43.755 44.968 43.755 24.813 0 45-20.187 45-45 0-20.703-25.898-51.173-33.836-60.019-5.961-6.642-16.367-6.642-22.328 0-4.475 4.987-14.656 16.845-22.689 29.952l-64.294-64.293c-7.142-18.419-24.454-38.71-30.689-45.659-5.961-6.642-16.367-6.642-22.328 0-6.097 6.794-22.778 26.344-30.193 44.428l-62.647 39.155c-8.267-14.506-19.947-28.139-24.832-33.583-5.961-6.642-16.367-6.642-22.328 0-7.937 8.846-33.836 39.316-33.836 60.019 0 24.814 20.187 45 45 45z"/><path d="m122 420h60c8.284 0 15-6.716 15-15v-200c0-8.284-6.716-15-15-15h-60c-8.284 0-15 6.716-15 15v200c0 8.284 6.716 15 15 15z"/><path d="m262 140c-8.284 0-15 6.716-15 15v250c0 8.284 6.716 15 15 15h60c8.284 0 15-6.716 15-15v-250c0-8.284-6.716-15-15-15z"/><path d="m402 220c-8.284 0-15 6.716-15 15v170c0 8.284 6.716 15 15 15h60c8.284 0 15-6.716 15-15v-170c0-8.284-6.716-15-15-15z"/><path d="m497 450h-435v-435c0-8.284-6.716-15-15-15s-15 6.716-15 15v15h-17c-8.284 0-15 6.716-15 15s6.716 15 15 15h17v40h-7c-8.284 0-15 6.716-15 15s6.716 15 15 15h7v40h-17c-8.284 0-15 6.716-15 15s6.716 15 15 15h17v40h-7c-8.284 0-15 6.716-15 15s6.716 15 15 15h7v40h-17c-8.284 0-15 6.716-15 15s6.716 15 15 15h17v40h-7c-8.284 0-15 6.716-15 15s6.716 15 15 15h7v40h-17c-8.284 0-15 6.716-15 15s6.716 15 15 15h17v17c0 8.284 6.716 15 15 15s15-6.716 15-15v-17h40v7c0 8.284 6.716 15 15 15s15-6.716 15-15v-7h40v17c0 8.284 6.716 15 15 15s15-6.716 15-15v-17h40v7c0 8.284 6.716 15 15 15s15-6.716 15-15v-7h40v17c0 8.284 6.716 15 15 15s15-6.716 15-15v-17h40v7c0 8.284 6.716 15 15 15s15-6.716 15-15v-7h40v17c0 8.284 6.716 15 15 15s15-6.716 15-15v-17h15c6.731 0 12.427-4.433 14.326-10.539.438-1.409.674-2.907.674-4.461 0-8.284-6.716-15-15-15z"/></g></svg>