<svg id="Capa_1" enable-background="new 0 0 512.004 512.004" height="512" viewBox="0 0 512.004 512.004" width="512" xmlns="http://www.w3.org/2000/svg"><g><g><g><path d="m497.004 90.002h-30c-8.284 0-15-6.716-15-15s6.716-15 15-15h30c8.284 0 15 6.716 15 15s-6.716 15-15 15z"/><path d="m482.004 150.002h-15c-8.284 0-15-6.716-15-15s6.716-15 15-15h15c8.284 0 15 6.716 15 15s-6.716 15-15 15z"/><path d="m497.004 210.002h-30c-8.284 0-15-6.716-15-15s6.716-15 15-15h30c8.284 0 15 6.716 15 15s-6.716 15-15 15z"/><path d="m482.004 270.002h-15c-8.284 0-15-6.716-15-15s6.716-15 15-15h15c8.284 0 15 6.716 15 15s-6.716 15-15 15z"/><path d="m497.004 330.002h-30c-8.284 0-15-6.716-15-15s6.716-15 15-15h30c8.284 0 15 6.716 15 15s-6.716 15-15 15z"/></g><g><path d="m231.647 139.532-34.979 9.373-27.167-15.685c.494-2.667.766-5.411.766-8.218 0-2.808-.271-5.552-.766-8.218l27.167-15.685 34.979 9.373c8.002 2.144 16.227-2.605 18.371-10.606 2.144-8.002-2.604-16.227-10.606-18.371l-26.492-7.099 7.098-26.493c2.144-8.002-2.605-16.227-10.607-18.371-8.002-2.144-16.227 2.605-18.371 10.607l-9.372 34.98-27.188 15.696c-4.155-3.556-8.959-6.37-14.213-8.233v-31.367l25.607-25.607c5.858-5.858 5.858-15.355 0-21.213-5.858-5.858-15.355-5.858-21.213 0l-19.393 19.393-19.395-19.393c-5.858-5.858-15.355-5.858-21.213 0-5.858 5.858-5.858 15.355 0 21.213l25.607 25.607v31.367c-5.254 1.863-10.058 4.677-14.213 8.233l-27.189-15.696-9.373-34.98c-2.144-8.002-10.369-12.751-18.371-10.606-8.002 2.144-12.751 10.369-10.606 18.371l7.099 26.492-26.492 7.099c-8.003 2.143-12.751 10.368-10.607 18.37s10.369 12.751 18.371 10.606l34.979-9.373 27.167 15.685c-.494 2.667-.766 5.411-.766 8.218 0 2.808.271 5.552.766 8.219l-27.167 15.684-34.979-9.373c-8.002-2.144-16.227 2.605-18.371 10.606-2.144 8.002 2.605 16.227 10.606 18.371l26.492 7.099-7.099 26.492c-2.144 8.002 2.604 16.227 10.606 18.371 8.002 2.144 16.227-2.605 18.371-10.606l9.373-34.98 27.188-15.697c4.155 3.556 8.959 6.369 14.213 8.233v31.367l-25.607 25.607c-5.858 5.858-5.858 15.355 0 21.213 5.858 5.858 15.355 5.858 21.213 0l19.393-19.393 19.393 19.393c5.858 5.858 15.355 5.858 21.213 0 5.858-5.858 5.858-15.355 0-21.213l-25.607-25.607v-31.367c5.254-1.863 10.058-4.677 14.213-8.233l27.188 15.697 9.372 34.98c2.144 8.002 10.369 12.751 18.371 10.607 8.002-2.144 12.751-10.369 10.607-18.371l-7.098-26.493 26.492-7.099c8.002-2.144 12.751-10.369 10.606-18.371s-10.365-12.749-18.367-10.605zm-106.381.47c-8.271 0-15-6.729-15-15s6.729-15 15-15 15 6.729 15 15-6.729 15-15 15z"/></g></g><g><circle cx="347.002" cy="407.002" r="15"/><path d="m412.004 324.537v-259.535c0-35.898-29.102-65-65-65-35.898 0-65 29.101-65 65v259.536c-24.362 19.229-40 49.02-40 82.465 0 57.99 47.01 105 105 105s105-47.01 105-105c0-33.446-15.639-63.237-40-82.466zm-65.002 127.465c-24.813 0-45-20.187-45-45 0-19.555 12.541-36.228 30-42.42v-37.58c0-8.284 6.716-15 15-15s15 6.716 15 15v37.58c17.459 6.192 30 22.865 30 42.42 0 24.813-20.187 45-45 45z"/></g></g></svg>