<svg id="Capa_1" enable-background="new 0 0 512 512" height="512" viewBox="0 0 512 512" width="512" xmlns="http://www.w3.org/2000/svg"><g><path d="m512 255c0-53.01-39.489-96.971-90.593-104.015-7.179-84.447-78.623-150.985-165.407-150.985-86.217 0-157.201 66.466-164.399 150.851-51.595 6.599-91.601 50.789-91.601 104.149 0 50.864 36.356 93.391 84.445 102.974l-17.318 42.117c-2.808 6.829-.229 14.686 6.08 18.521l39.043 23.739-20.123 48.94c-3.15 7.662.507 16.427 8.168 19.577 7.662 3.15 16.427-.507 19.577-8.168l25-60.8c2.808-6.829.229-14.686-6.08-18.521l-39.042-23.738 16.3-39.641h67.563l-16.485 40.091c-2.808 6.829-.229 14.686 6.08 18.521l39.043 23.739-20.123 48.94c-3.15 7.662.507 16.427 8.168 19.577 7.662 3.15 16.427-.507 19.577-8.168l25-60.8c2.808-6.829.229-14.686-6.08-18.521l-39.043-23.739 16.3-39.641h67.563l-16.485 40.091c-2.808 6.829-.229 14.686 6.08 18.521l39.044 23.739-20.124 48.94c-3.15 7.662.507 16.427 8.169 19.577 7.662 3.15 16.427-.507 19.577-8.169l25-60.799c2.808-6.829.229-14.686-6.08-18.521l-39.044-23.739 16.3-39.641h67.563l-16.485 40.091c-2.808 6.829-.229 14.686 6.08 18.521l39.044 23.739-20.124 48.94c-3.15 7.662.507 16.427 8.169 19.577 7.662 3.15 16.427-.507 19.577-8.169l25-60.799c2.808-6.829.229-14.686-6.08-18.521l-39.044-23.739 16.468-40.05c53.595-4.681 95.782-49.797 95.782-104.588z"/></g></svg>