<svg id="Capa_1" enable-background="new 0 0 512 512" height="512" viewBox="0 0 512 512" width="512" xmlns="http://www.w3.org/2000/svg"><g><g><path d="m345.981 312c-8.925.001-17.376-2.619-24.496-7.243l-8.855 84.117 19.02 62.493c1.922 6.317 7.748 10.633 14.35 10.633s12.428-4.316 14.35-10.633l31.128-102.276-11.619-52.285c-8.282 9.494-20.399 15.192-33.878 15.194z"/></g><path d="m241.109 498.805-30.237-249.45-30.32 121.282c-3.881 15.524-26.123 14.995-29.261-.696l-26.918-134.589-43.821 175.286c-4.023 16.094-27.333 14.715-29.432-1.74l-50-392c-1.143-8.965 5.843-16.898 14.88-16.898h480c9.078 0 16.076 8.001 14.866 16.998l-50 372c-2.232 16.605-25.874 17.611-29.509 1.256l-46.682-210.069-24.181 90.68c-3.835 14.382-24.017 15-28.724.878l-28.101-84.304-32.751 311.132c-1.87 17.765-27.659 17.968-29.809.234z"/></g></svg>