<svg id="Capa_1" enable-background="new 0 0 512 512" height="512" viewBox="0 0 512 512" width="512" xmlns="http://www.w3.org/2000/svg"><g><g><path d="m256 250c-68.925 0-125-56.075-125-125s56.075-125 125-125c8.54 0 17.118.881 25.496 2.619 6.828 1.417 11.779 7.352 11.949 14.323.169 6.971-4.488 13.14-11.239 14.886-24.262 6.277-41.206 28.142-41.206 53.172 0 30.327 24.673 55 55 55 25.03 0 46.895-16.944 53.171-41.206 1.747-6.751 7.919-11.431 14.886-11.238 6.971.169 12.906 5.12 14.323 11.948 1.738 8.379 2.62 16.957 2.62 25.496 0 68.925-56.075 125-125 125z"/></g><g><path d="m497 418.51c-17.242 15.252-38.155 23.49-60.25 23.49s-43.008-8.238-60.25-23.49c-17.242 15.252-38.155 23.49-60.25 23.49s-43.008-8.238-60.25-23.49c-17.242 15.252-38.155 23.49-60.25 23.49s-43.008-8.238-60.25-23.49c-17.242 15.252-38.155 23.49-60.25 23.49s-43.008-8.238-60.25-23.49c-4.737 4.19-9.76 7.831-15 10.937v37.553c0 3.505 1.227 6.898 3.468 9.593 18.994 22.833 44.487 35.407 71.782 35.407 22.096 0 43.008-8.238 60.25-23.49 17.242 15.252 38.154 23.49 60.25 23.49s43.008-8.238 60.25-23.49c17.242 15.252 38.154 23.49 60.25 23.49s43.008-8.238 60.25-23.49c17.242 15.252 38.154 23.49 60.25 23.49 27.295 0 52.788-12.574 71.782-35.407 2.241-2.694 3.468-6.088 3.468-9.593v-37.553c-5.24-3.106-10.263-6.747-15-10.937z"/><path d="m3.468 387.407c5.998-7.21 17.066-7.21 23.063 0 13.194 15.86 30.495 24.593 48.719 24.593s35.525-8.733 48.718-24.593c5.998-7.21 17.066-7.21 23.063 0 13.194 15.86 30.495 24.593 48.719 24.593s35.525-8.733 48.718-24.593c5.998-7.21 17.066-7.21 23.063 0 13.194 15.86 30.495 24.593 48.719 24.593s35.525-8.733 48.718-24.593c5.998-7.21 17.066-7.21 23.063 0 13.194 15.86 30.495 24.593 48.719 24.593s35.525-8.733 48.718-24.593c5.998-7.21 17.066-7.21 23.063 0 1.123 1.351 2.287 2.63 3.468 3.876v-64.283c0-6.317-3.958-11.958-9.9-14.106-5.94-2.146-12.591-.343-16.632 4.514-13.192 15.858-30.493 24.592-48.717 24.592s-35.525-8.734-48.718-24.593c-2.85-3.426-7.076-5.407-11.532-5.407s-8.682 1.981-11.532 5.407c-13.193 15.859-30.494 24.593-48.718 24.593s-35.525-8.734-48.718-24.593c-2.85-3.426-7.076-5.407-11.532-5.407s-8.682 1.981-11.532 5.407c-13.193 15.859-30.494 24.593-48.718 24.593s-35.525-8.734-48.718-24.593c-2.85-3.426-7.076-5.407-11.532-5.407s-8.682 1.981-11.532 5.407c-13.193 15.859-30.494 24.593-48.718 24.593s-35.525-8.734-48.718-24.593c-4.042-4.858-10.693-6.661-16.632-4.514-5.941 2.149-9.9 7.79-9.9 14.107v64.283c1.181-1.246 2.345-2.525 3.468-3.876z"/></g><g><path d="m105.607 234.394c-5.858-5.858-15.355-5.858-21.213 0l-14.394 14.393v-73.787c0-8.284-6.716-15-15-15s-15 6.716-15 15v73.787l-14.394-14.394c-5.858-5.858-15.355-5.858-21.213 0-5.858 5.858-5.858 15.355 0 21.213l40 40c5.858 5.858 15.355 5.858 21.213 0l40-40c5.859-5.857 5.859-15.355.001-21.212z"/><g><path d="m507.606 225.606c-5.858 5.858-15.355 5.858-21.213 0l-14.393-14.393v73.787c0 8.284-6.716 15-15 15s-15-6.716-15-15v-73.787l-14.394 14.394c-5.858 5.858-15.355 5.858-21.213 0-5.858-5.858-5.858-15.355 0-21.213l40-40c5.858-5.858 15.355-5.858 21.213 0l40 40c5.858 5.857 5.858 15.355 0 21.212z"/></g></g></g></svg>