<svg id="Capa_1" enable-background="new 0 0 512 512" height="512" viewBox="0 0 512 512" width="512" xmlns="http://www.w3.org/2000/svg"><g><path d="m285.845 35 13.999-35h-87.688l13.999 35z"/><path d="m271 432v15c0 8.284-6.716 15-15 15s-15-6.716-15-15v-15h-150v25c0 30.327 24.673 55 55 55h220c30.327 0 55-24.673 55-55v-25z"/><g><path d="m366 0h-33.844l-22.229 55.571c-2.278 5.695-7.793 9.429-13.927 9.429h-80c-6.134 0-11.649-3.734-13.927-9.429l-22.229-55.571h-33.844c-30.327 0-55 24.673-55 55v347h330v-347c0-30.327-24.673-55-55-55zm-184.623 338.927-8.847 23.382c-2.932 7.748-11.59 11.653-19.338 8.721-7.748-2.932-11.653-11.59-8.721-19.338l8.847-23.382c2.932-7.748 11.59-11.653 19.338-8.721 7.748 2.932 11.652 11.589 8.721 19.338zm62.5 0-8.847 23.382c-2.932 7.748-11.59 11.653-19.338 8.721-7.748-2.932-11.653-11.59-8.721-19.338l8.847-23.382c2.932-7.748 11.59-11.653 19.338-8.721 7.748 2.932 11.652 11.589 8.721 19.338zm62.5 0-8.847 23.382c-2.932 7.748-11.59 11.653-19.338 8.721-7.748-2.932-11.653-11.59-8.721-19.338l8.847-23.382c2.932-7.748 11.59-11.653 19.338-8.721 7.748 2.932 11.652 11.589 8.721 19.338zm22.909-60.546-5.604 14.809c-2.932 7.748-11.59 11.653-19.338 8.721-7.748-2.932-11.653-11.59-8.721-19.338l1.163-3.073h-30.424l-5.18 13.69c-2.932 7.748-11.59 11.653-19.338 8.721-7.748-2.932-11.653-11.59-8.721-19.338l1.163-3.073h-30.424l-5.18 13.69c-2.932 7.748-11.59 11.653-19.338 8.721-7.748-2.932-11.653-11.59-8.721-19.338l2.692-7.114c-18.958-7.926-32.315-26.66-32.315-48.459 0-24.143 16.383-44.532 38.614-50.637 6.256-36.5 38.128-64.363 76.386-64.363s70.13 27.863 76.386 64.363c22.231 6.105 38.614 26.494 38.614 50.637 0 25.252-17.923 46.393-41.714 51.381z"/><path d="m318.5 204.5c-8.284 0-15-6.716-15-15 0-26.191-21.309-47.5-47.5-47.5s-47.5 21.309-47.5 47.5c0 8.284-6.716 15-15 15-12.407 0-22.5 10.094-22.5 22.5s10.093 22.5 22.5 22.5h125c12.407 0 22.5-10.094 22.5-22.5s-10.093-22.5-22.5-22.5z"/></g></g></svg>