<svg id="Capa_1" enable-background="new 0 0 512 512" height="512" viewBox="0 0 512 512" width="512" xmlns="http://www.w3.org/2000/svg"><g><g><g><path d="m206 180c8.284 0 15-6.716 15-15s-6.716-15-15-15h-72.955c-8.284 0-15 6.716-15 15v180c0 8.284 6.716 15 15 15s15-6.716 15-15v-76.704h52.159c8.284 0 15-6.716 15-15s-6.716-15-15-15h-52.159v-58.296z"/><path d="m56 90c-24.813 0-45 20.187-45 45s20.187 45 45 45 45-20.187 45-45-20.187-45-45-45zm0 60c-8.271 0-15-6.729-15-15s6.729-15 15-15 15 6.729 15 15-6.729 15-15 15z"/></g><g><g><g><g><g><g><path d="m486 90h-30c-8.284 0-15-6.716-15-15s6.716-15 15-15h30c8.284 0 15 6.716 15 15s-6.716 15-15 15z"/><path d="m471 150h-15c-8.284 0-15-6.716-15-15s6.716-15 15-15h15c8.284 0 15 6.716 15 15s-6.716 15-15 15z"/><path d="m486 210h-30c-8.284 0-15-6.716-15-15s6.716-15 15-15h30c8.284 0 15 6.716 15 15s-6.716 15-15 15z"/><path d="m471 270h-15c-8.284 0-15-6.716-15-15s6.716-15 15-15h15c8.284 0 15 6.716 15 15s-6.716 15-15 15z"/><path d="m486 330h-30c-8.284 0-15-6.716-15-15s6.716-15 15-15h30c8.284 0 15 6.716 15 15s-6.716 15-15 15z"/></g></g></g></g></g></g></g><g><circle cx="336" cy="407" r="15"/><path d="m401 324.535v-259.535c0-35.898-29.101-65-65-65-35.898 0-65 29.101-65 65v259.536c-24.362 19.229-40 49.02-40 82.465 0 57.99 47.01 105 105 105s105-47.01 105-105c0-33.446-15.638-63.237-40-82.466zm-65 127.465c-24.813 0-45-20.187-45-45 0-19.555 12.541-36.228 30-42.42v-229.58c0-8.284 6.716-15 15-15s15 6.716 15 15v229.58c17.459 6.192 30 22.865 30 42.42 0 24.813-20.187 45-45 45z"/></g></g></svg>