<svg id="Capa_1" enable-background="new 0 0 512 512" height="512" viewBox="0 0 512 512" width="512" xmlns="http://www.w3.org/2000/svg"><g><g><g><g><g><path d="m335 512c-20.677 0-37.5-16.823-37.5-37.5s16.823-37.5 37.5-37.5 37.5 16.823 37.5 37.5-16.823 37.5-37.5 37.5z"/><path d="m80 512c-20.677 0-37.5-16.823-37.5-37.5s16.823-37.5 37.5-37.5 37.5 16.823 37.5 37.5-16.823 37.5-37.5 37.5z"/><path d="m207.5 512c-20.677 0-37.5-16.823-37.5-37.5s16.823-37.5 37.5-37.5 37.5 16.823 37.5 37.5-16.823 37.5-37.5 37.5z"/></g></g></g></g><g><g><g><g><g><path d="m512 125c0-8.538-.881-17.117-2.62-25.497-1.416-6.828-7.352-11.78-14.323-11.948-6.971-.169-13.14 4.488-14.886 11.239-6.277 24.261-28.141 41.206-53.171 41.206-14.691 0-28.502-5.72-38.891-16.109-10.389-10.388-16.109-24.2-16.109-38.891 0-25.03 16.944-46.895 41.205-53.171 6.751-1.746 11.409-7.915 11.239-14.886-.169-6.973-5.122-12.908-11.948-14.323-8.38-1.739-16.958-2.62-25.496-2.62-53.922 0-99.977 34.321-117.472 82.264 49.276 20.357 86.51 64.266 97.292 118.087 18.39 5.894 35.082 16.495 48.434 30.995 3.679 3.995 7.038 8.221 10.069 12.638 50.234-16.219 86.677-63.422 86.677-118.984z"/></g><path d="m332.5 390h-250c-45.491 0-82.5-37.009-82.5-82.5 0-43.028 33.112-78.468 75.192-82.179 3.741-69.737 61.655-125.321 132.308-125.321 70.652 0 128.567 55.584 132.308 125.321 42.08 3.711 75.192 39.151 75.192 82.179 0 45.491-37.01 82.5-82.5 82.5z"/></g></g></g></g></g></svg>