<svg id="Capa_1" enable-background="new 0 0 512 512" height="512" viewBox="0 0 512 512" width="512" xmlns="http://www.w3.org/2000/svg"><g><g><g><g><path d="m497 90h-30c-8.284 0-15-6.716-15-15s6.716-15 15-15h30c8.284 0 15 6.716 15 15s-6.716 15-15 15z"/><path d="m482 150h-15c-8.284 0-15-6.716-15-15s6.716-15 15-15h15c8.284 0 15 6.716 15 15s-6.716 15-15 15z"/><path d="m497 210h-30c-8.284 0-15-6.716-15-15s6.716-15 15-15h30c8.284 0 15 6.716 15 15s-6.716 15-15 15z"/><path d="m482 270h-15c-8.284 0-15-6.716-15-15s6.716-15 15-15h15c8.284 0 15 6.716 15 15s-6.716 15-15 15z"/><path d="m497 330h-30c-8.284 0-15-6.716-15-15s6.716-15 15-15h30c8.284 0 15 6.716 15 15s-6.716 15-15 15z"/></g></g><path d="m168.301 360c-57.897 0-105-47.103-105-105s47.103-105 105-105c21.04 0 41.344 6.204 58.717 17.94 6.865 4.638 8.67 13.962 4.032 20.827-4.637 6.864-13.96 8.671-20.826 4.032-12.395-8.374-26.892-12.8-41.923-12.8-41.355 0-75 33.645-75 75s33.645 75 75 75c15.671 0 28.934-4.734 39.418-14.072 2.038-1.814 3.985-3.825 5.788-5.974 5.323-6.35 14.785-7.178 21.132-1.854 6.348 5.323 7.178 14.784 1.854 21.132-2.733 3.259-5.701 6.32-8.821 9.1-15.918 14.176-36.448 21.669-59.371 21.669z"/><path d="m45 180c-24.813 0-45-20.187-45-45s20.187-45 45-45 45 20.187 45 45-20.187 45-45 45zm0-60c-8.271 0-15 6.729-15 15s6.729 15 15 15 15-6.729 15-15-6.729-15-15-15z"/></g><g><circle cx="347" cy="407" r="15"/><path d="m412 324.535v-259.535c0-35.898-29.101-65-65-65-35.899 0-65 29.101-65 65v259.536c-24.362 19.229-40 49.02-40 82.465 0 57.99 47.01 105 105 105s105-47.01 105-105c0-33.446-15.638-63.237-40-82.466zm-65 127.465c-24.813 0-45-20.187-45-45 0-19.555 12.541-36.228 30-42.42v-109.58c0-8.284 6.716-15 15-15s15 6.716 15 15v109.58c17.459 6.192 30 22.865 30 42.42 0 24.813-20.187 45-45 45z"/></g></g></svg>