<svg id="Capa_1" enable-background="new 0 0 512 512" height="512" viewBox="0 0 512 512" width="512" xmlns="http://www.w3.org/2000/svg"><g><circle cx="146" cy="176" r="25"/><circle cx="176" cy="376" r="15"/><g><circle cx="356" cy="336" r="25"/><g><path d="m506.949 205.257c-1.384-6.88-7.353-11.881-14.368-12.038-.114-.003-.227-.004-.341-.004-6.874 0-12.89 4.685-14.554 11.385-10.836 43.635-41.197 78.121-80.401 95.12 8.527 9.691 13.715 22.387 13.715 36.28 0 30.327-24.673 55-55 55s-55-24.673-55-55c0-10.418 2.912-20.169 7.965-28.482-59.561-14.094-104.591-66.164-108.025-129.13-1.256 29.223-25.414 52.612-54.94 52.612-30.327 0-55-24.673-55-55s24.673-55 55-55c28.42 0 51.873 21.667 54.711 49.35.134-64.545 43.966-120.46 106.689-136.037 6.811-1.691 11.538-7.879 11.381-14.895s-5.158-12.984-12.038-14.368c-16.659-3.351-33.731-5.05-50.743-5.05-68.38 0-132.667 26.629-181.02 74.98-48.351 48.353-74.98 112.64-74.98 181.02s26.629 132.667 74.98 181.02c48.353 48.351 112.64 74.98 181.02 74.98s132.667-26.629 181.02-74.98c48.351-48.353 74.98-112.64 74.98-181.02 0-17.012-1.699-34.084-5.051-50.743zm-410.949 105.743c-8.284 0-15-6.716-15-15s6.716-15 15-15 15 6.716 15 15-6.716 15-15 15zm80 110c-24.813 0-45-20.187-45-45s20.187-45 45-45 45 20.187 45 45-20.187 45-45 45z"/></g></g></g></svg>